<svg xmlns="http://www.w3.org/2000/svg" xmlns:xlink="http://www.w3.org/1999/xlink" version="1.1" width="75.78947389555108" height="38" enable-background="new 0 0 1150 34" xml:space="preserve">
  <rect id="backgroundrect" width="100%" height="100%" x="0" y="0" fill="none" stroke="none" class="" opacity="1"/>

  <g class="currentLayer">
    <title>Layer 1</title>
    <path fill="#FFFFFF" d="M1044.3052348541448,6.315785050392151 c-18.638156950473785,0 -18.638156950473785,14 -37.275017333507535,14 s-18.636860383033753,-14 -37.273720766067505,-14 s-18.636860383033753,14 -37.273720766067505,14 c-18.638156950473785,0 -18.638156950473785,-14 -37.27631390094757,-14 c-18.636860383033753,0 -18.636860383033753,14 -37.273720766067505,14 S839.2958809384534,6.315785050392151 820.6590205554196,6.315785050392151 s-18.636860383033753,14 -37.275017333507535,14 S764.7458462714383,6.315785050392151 746.1089858884047,6.315785050392151 s-18.636860383033753,14 -37.275017333507535,14 s-18.638156950473785,-14 -37.27631390094757,-14 c-18.632970680713655,0 -18.632970680713655,14 -37.26723792886734,14 c-18.638156950473785,0 -18.638156950473785,-14 -37.27631390094757,-14 c-18.634267248153687,0 -18.634267248153687,14 -37.268534496307375,14 c-18.636860383033753,0 -18.636860383033753,-14 -37.27242419862747,-14 s-18.63556381559372,14 -37.27242419862747,14 C466.56515611497844,20.31578505039215 466.56515611497844,6.315785050392151 447.9295922993848,6.315785050392151 c-18.636860383033753,0 -18.636860383033753,14 -37.273720766067505,14 c-18.638156950473785,0 -18.638156950473785,-14 -37.27761046838761,-14 c-18.636860383033753,0 -18.636860383033753,14 -37.273720766067505,14 S317.4676799158285,6.315785050392151 298.83081953279475,6.315785050392151 s-18.636860383033753,14 -37.273720766067505,14 C242.92023838369346,20.31578505039215 242.92023838369346,6.315785050392151 224.2833780006597,6.315785050392151 c-18.638156950473785,0 -18.638156950473785,14 -37.27631390094757,14 C168.36761058179832,20.31578505039215 168.36761058179832,6.315785050392151 149.7268604964445,6.315785050392151 c-18.638156950473785,0 -18.638156950473785,14 -37.27631390094757,14 c-18.638156950473785,0 -18.638156950473785,-14 -37.27761046838761,-14 c-18.638156950473785,0 -18.638156950473785,14 -37.27631390094757,14 S19.25716870824789,6.315785050392151 0.6190117577741034,6.315785050392151 s-18.638156950473785,14 -37.27761046838761,14 c-18.639453517913818,0 -18.639453517913818,-14 -37.28020360326767,-14 c-18.636860383033753,0 -18.636860383033753,14 -37.27242419862747,14 c-18.638156950473785,0 -18.638156950473785,-14 -37.27631390094757,-14 c-18.638156950473785,0 -18.638156950473785,14 -37.27761046838761,14 c-18.64075008535385,0 -18.64075008535385,-14 -37.2815001707077,-14 c-18.64075008535385,0 -18.64075008535385,14 -37.28279673814773,14 c-18.642046652793884,0 -18.642046652793884,-14 -37.28409330558777,-14 S-316.2555877490809,20.31578505039215 -334.8976344018748,20.31578505039215 C-353.5409776221087,20.31578505039215 -353.5409776221087,6.315785050392151 -372.18561740978265,6.315785050392151 S-390.8289606300166,20.31578505039215 -409.47360041769053,20.31578505039215 v20 h1491.0525560379028 V20.31578505039215 C1062.9420952371786,20.31578505039215 1062.9420952371786,6.315785050392151 1044.3052348541448,6.315785050392151 z" id="svg_1" class="" opacity="1"/>
  </g>
</svg>
