<svg xmlns="http://www.w3.org/2000/svg" xmlns:xlink="http://www.w3.org/1999/xlink" version="1.1" width="56" height="29.923076810216116" enable-background="new 0 0 1150 23" xml:space="preserve">
  <rect id="backgroundrect" width="100%" height="100%" x="0" y="0" fill="none" stroke="none" class="selected"/>
  <g class="currentLayer">
    <title>Layer 1</title>
      <g id="svg_1" class="">
      <path fill="#E6E7E8" d="M1093.0769213438034,25.307692408561707 c-9.017,0 -13.728,-4.589 -17.514,-8.276 c-3.412,-3.323 -5.877,-5.724 -11.234,-5.724 c-5.358,0 -7.823,2.401 -11.235,5.724 c-3.786,3.688 -8.497,8.276 -17.514,8.276 s-13.728,-4.589 -17.514,-8.276 c-3.412,-3.323 -5.877,-5.724 -11.234,-5.724 s-7.822,2.401 -11.234,5.724 c-3.786,3.688 -8.497,8.276 -17.514,8.276 s-13.729,-4.589 -17.515,-8.276 C957.1569213438033,13.708692408561706 954.6919213438034,11.307692408561707 949.3339213438035,11.307692408561707 c-5.357,0 -7.822,2.401 -11.234,5.724 C934.3129213438033,20.718692408561708 929.6019213438035,25.307692408561707 920.5859213438034,25.307692408561707 s-13.728,-4.589 -17.514,-8.276 C899.6599213438035,13.708692408561706 897.1949213438033,11.307692408561707 891.8379213438034,11.307692408561707 s-7.822,2.401 -11.234,5.724 C876.8169213438034,20.718692408561708 872.1049213438034,25.307692408561707 863.0889213438033,25.307692408561707 s-13.729,-4.589 -17.515,-8.276 C842.1619213438034,13.708692408561706 839.6969213438033,11.307692408561707 834.3399213438033,11.307692408561707 s-7.822,2.401 -11.234,5.724 C819.3189213438034,20.718692408561708 814.6069213438034,25.307692408561707 805.5909213438035,25.307692408561707 s-13.729,-4.589 -17.515,-8.276 C784.6639213438034,13.708692408561706 782.1989213438032,11.307692408561707 776.8409213438035,11.307692408561707 c-5.355,0 -7.82,2.4 -11.231,5.723 C761.8239213438032,20.718692408561708 757.1129213438035,25.307692408561707 748.0979213438034,25.307692408561707 c-9.017,0 -13.729,-4.589 -17.515,-8.276 C727.1709213438035,13.708692408561706 724.7059213438034,11.307692408561707 719.3479213438034,11.307692408561707 c-5.356,0 -7.821,2.401 -11.232,5.723 C704.3299213438034,20.718692408561708 699.6189213438034,25.307692408561707 690.6029213438034,25.307692408561707 c-9.017,0 -13.729,-4.589 -17.514,-8.277 C669.6789213438034,13.708692408561706 667.2139213438033,11.307692408561707 661.8559213438034,11.307692408561707 s-7.821,2.401 -11.233,5.723 C646.8379213438034,20.718692408561708 642.1259213438034,25.307692408561707 633.1089213438034,25.307692408561707 c-9.016,0 -13.727,-4.589 -17.512,-8.276 C612.1859213438034,13.708692408561706 609.7219213438034,11.307692408561707 604.3639213438034,11.307692408561707 s-7.822,2.401 -11.234,5.724 C589.3439213438035,20.718692408561708 584.6329213438034,25.307692408561707 575.6159213438034,25.307692408561707 s-13.729,-4.589 -17.515,-8.276 C554.6889213438034,13.708692408561706 552.2239213438035,11.307692408561707 546.8649213438034,11.307692408561707 c-5.357,0 -7.822,2.401 -11.234,5.724 C531.8449213438034,20.718692408561708 527.1339213438034,25.307692408561707 518.1169213438034,25.307692408561707 c-9.016,0 -13.728,-4.589 -17.514,-8.276 C497.1919213438034,13.708692408561706 494.7269213438034,11.307692408561707 489.36892134380344,11.307692408561707 s-7.823,2.401 -11.234,5.724 C474.34892134380345,20.718692408561708 469.63792134380344,25.307692408561707 460.6209213438034,25.307692408561707 c-9.017,0 -13.729,-4.589 -17.514,-8.276 C439.69592134380343,13.708692408561706 437.2299213438034,11.307692408561707 431.87292134380345,11.307692408561707 c-5.358,0 -7.823,2.401 -11.235,5.724 C416.8509213438034,20.718692408561708 412.1389213438034,25.307692408561707 403.12292134380345,25.307692408561707 c-9.017,0 -13.729,-4.589 -17.516,-8.276 C382.19492134380334,13.708692408561706 379.7299213438034,11.307692408561707 374.3699213438034,11.307692408561707 c-5.358,0 -7.823,2.401 -11.235,5.724 C359.34892134380334,20.718692408561708 354.63692134380335,25.307692408561707 345.6199213438034,25.307692408561707 s-13.729,-4.589 -17.515,-8.276 C324.6929213438034,13.708692408561706 322.2279213438035,11.307692408561707 316.8689213438033,11.307692408561707 c-5.358,0 -7.823,2.401 -11.235,5.724 C301.84792134380336,20.718692408561708 297.1359213438034,25.307692408561707 288.1189213438033,25.307692408561707 s-13.729,-4.589 -17.515,-8.276 C267.19092134380344,13.708692408561706 264.7259213438034,11.307692408561707 259.36792134380335,11.307692408561707 s-7.824,2.401 -11.236,5.724 C244.3459213438034,20.718692408561708 239.63292134380345,25.307692408561707 230.6159213438034,25.307692408561707 c-9.018,0 -13.729,-4.589 -17.516,-8.276 C209.6879213438034,13.708692408561706 207.2219213438034,11.307692408561707 201.8629213438034,11.307692408561707 c-5.357,0 -7.822,2.401 -11.234,5.724 C186.8439213438034,20.718692408561708 182.1319213438034,25.307692408561707 173.1159213438034,25.307692408561707 c-9.017,0 -13.729,-4.589 -17.515,-8.276 C152.18892134380337,13.708692408561706 149.7239213438034,11.307692408561707 144.3659213438034,11.307692408561707 s-7.824,2.401 -11.236,5.724 C129.3439213438034,20.718692408561708 124.63192134380341,25.307692408561707 115.61492134380342,25.307692408561707 c-9.018,0 -13.73,-4.589 -17.517,-8.276 C94.68592134380344,13.708692408561706 92.22092134380341,11.307692408561707 86.8609213438034,11.307692408561707 c-5.36,0 -7.825,2.401 -11.238,5.724 c-3.787,3.6870000000000003 -8.5,8.276 -17.517,8.276 c-9.018,0 -13.73,-4.589 -17.517,-8.276 C37.175921343803395,13.708692408561706 34.70992134380339,11.307692408561707 29.34992134380343,11.307692408561707 s-7.8260000000000005,2.401 -11.239,5.724 C14.32592134380343,20.718692408561708 9.612921343803407,25.307692408561707 0.5949213438034349,25.307692408561707 C-8.423078656196594,25.307692408561707 -13.136078656196617,20.719692408561706 -16.923078656196594,17.031692408561707 C-20.33707865619658,13.708692408561706 -22.80307865619659,11.307692408561707 -28.16407865619658,11.307692408561707 s-7.827,2.401 -11.24,5.724 C-43.191078656196595,20.718692408561708 -47.90407865619659,25.307692408561707 -56.923078656196594,25.307692408561707 v-9 c5.361,0 7.827,-2.401 11.241,-5.724 C-41.8950786561966,6.8956924085617075 -37.18207865619661,2.307692408561707 -28.16407865619658,2.307692408561707 s13.731,4.588 17.519,8.276 C-7.232078656196563,13.906692408561707 -4.766078656196612,16.307692408561707 0.5949213438034349,16.307692408561707 c5.36,0 7.825,-2.401 11.238,-5.724 C15.619921343803412,6.896692408561706 20.3319213438034,2.307692408561707 29.34992134380343,2.307692408561707 s13.73,4.589 17.517,8.276 c3.4130000000000003,3.323 5.8790000000000004,5.724 11.239,5.724 s7.8260000000000005,-2.401 11.238,-5.724 C73.13092134380338,6.896692408561706 77.8439213438034,2.307692408561707 86.8609213438034,2.307692408561707 s13.73,4.589 17.517,8.276 c3.412,3.323 5.878,5.724 11.237,5.724 c5.358,0 7.824,-2.401 11.236,-5.724 C130.6369213438034,6.896692408561706 135.3489213438034,2.307692408561707 144.3659213438034,2.307692408561707 c9.017,0 13.729,4.589 17.515,8.276 c3.412,3.323 5.877,5.724 11.235,5.724 c5.357,0 7.822,-2.401 11.234,-5.724 C188.13592134380337,6.896692408561706 192.8469213438034,2.307692408561707 201.8629213438034,2.307692408561707 c9.017,0 13.729,4.589 17.516,8.276 C222.7909213438034,13.906692408561707 225.25692134380347,16.307692408561707 230.6159213438034,16.307692408561707 c5.359,0 7.824,-2.401 11.236,-5.724 C245.63892134380342,6.896692408561706 250.3509213438034,2.307692408561707 259.36792134380335,2.307692408561707 c9.017,0 13.729,4.589 17.515,8.276 c3.412,3.323 5.877,5.724 11.236,5.724 c5.359,0 7.824,-2.401 11.236,-5.724 C303.1399213438034,6.896692408561706 307.8519213438034,2.307692408561707 316.8689213438033,2.307692408561707 c9.017,0 13.729,4.589 17.516,8.276 C337.79692134380343,13.906692408561707 340.26192134380335,16.307692408561707 345.6199213438034,16.307692408561707 s7.823,-2.401 11.235,-5.724 C360.64192134380346,6.896692408561706 365.35392134380345,2.307692408561707 374.3699213438034,2.307692408561707 c9.018,0 13.729,4.589 17.516,8.276 c3.412,3.323 5.877,5.724 11.236,5.724 c5.358,0 7.823,-2.401 11.235,-5.724 C418.1439213438034,6.896692408561706 422.8559213438034,2.307692408561707 431.87292134380345,2.307692408561707 c9.016,0 13.728,4.589 17.514,8.276 c3.412,3.323 5.877,5.724 11.235,5.724 c5.357,0 7.822,-2.401 11.234,-5.724 C475.64092134380337,6.896692408561706 480.3519213438034,2.307692408561707 489.36892134380344,2.307692408561707 c9.016,0 13.728,4.589 17.514,8.276 C510.2939213438034,13.906692408561707 512.7589213438034,16.307692408561707 518.1169213438034,16.307692408561707 c5.357,0 7.822,-2.401 11.234,-5.724 C533.1379213438034,6.896692408561706 537.8479213438034,2.307692408561707 546.8649213438034,2.307692408561707 c9.018,0 13.729,4.589 17.516,8.276 c3.412,3.323 5.877,5.724 11.235,5.724 c5.357,0 7.822,-2.401 11.234,-5.724 C590.6369213438034,6.896692408561706 595.3479213438034,2.307692408561707 604.3639213438034,2.307692408561707 s13.728,4.589 17.513,8.277 C625.2879213438034,13.907692408561708 627.7529213438035,16.307692408561707 633.1089213438034,16.307692408561707 c5.357,0 7.822,-2.401 11.234,-5.724 C648.1289213438034,6.896692408561706 652.8409213438034,2.307692408561707 661.8559213438034,2.307692408561707 s13.728,4.589 17.513,8.276 c3.412,3.323 5.877,5.724 11.234,5.724 c5.356,0 7.821,-2.401 11.232,-5.723 C705.6209213438034,6.896692408561706 710.3319213438034,2.307692408561707 719.3479213438034,2.307692408561707 c9.017,0 13.729,4.589 17.515,8.276 c3.412,3.323 5.877,5.724 11.235,5.724 c5.356,0 7.821,-2.401 11.232,-5.724 C763.1149213438034,6.896692408561706 767.8259213438034,2.307692408561707 776.8409213438035,2.307692408561707 c9.017,0 13.729,4.589 17.515,8.276 C797.7669213438035,13.906692408561707 800.2319213438034,16.307692408561707 805.5909213438035,16.307692408561707 s7.823,-2.401 11.235,-5.724 C820.6119213438033,6.896692408561706 825.3239213438032,2.307692408561707 834.3399213438033,2.307692408561707 c9.017,0 13.728,4.589 17.514,8.276 c3.412,3.323 5.877,5.724 11.235,5.724 s7.823,-2.401 11.235,-5.724 C878.1099213438033,6.896692408561706 882.8209213438035,2.307692408561707 891.8379213438034,2.307692408561707 s13.728,4.589 17.514,8.276 c3.412,3.323 5.877,5.724 11.234,5.724 s7.822,-2.401 11.234,-5.724 C935.6059213438034,6.896692408561706 940.3169213438034,2.307692408561707 949.3339213438035,2.307692408561707 s13.729,4.589 17.515,8.276 c3.412,3.323 5.877,5.724 11.235,5.724 c5.357,0 7.822,-2.401 11.234,-5.724 c3.786,-3.688 8.497,-8.276 17.514,-8.276 s13.728,4.589 17.514,8.276 c3.412,3.323 5.877,5.724 11.234,5.724 s7.822,-2.401 11.234,-5.724 c3.786,-3.688 8.498,-8.276 17.515,-8.276 s13.728,4.589 17.514,8.276 C1085.2549213438035,13.906692408561707 1087.7199213438034,16.307692408561707 1093.0769213438034,16.307692408561707 V25.307692408561707 z" id="svg_2"/>
    </g>
  </g>
</svg>
